<?xml version="1.0" encoding="UTF-8" standalone="no"?>
<!-- Created with Inkscape (http://www.inkscape.org/) -->

<svg
   width="297mm"
   height="210mm"
   viewBox="0 0 297 210"
   version="1.1"
   id="svg5"
   inkscape:version="1.1.1 (3bf5ae0d25, 2021-09-20)"
   sodipodi:docname="HF_3mm27cmX13cm.svg"
   xmlns:inkscape="http://www.inkscape.org/namespaces/inkscape"
   xmlns:sodipodi="http://sodipodi.sourceforge.net/DTD/sodipodi-0.dtd"
   xmlns="http://www.w3.org/2000/svg"
   xmlns:svg="http://www.w3.org/2000/svg">
  <sodipodi:namedview
     id="namedview7"
     pagecolor="#ffffff"
     bordercolor="#666666"
     borderopacity="1.0"
     inkscape:pageshadow="2"
     inkscape:pageopacity="0.0"
     inkscape:pagecheckerboard="0"
     inkscape:document-units="mm"
     showgrid="true"
     inkscape:zoom="1.5767014"
     inkscape:cx="604.74354"
     inkscape:cy="277.47803"
     inkscape:window-width="1920"
     inkscape:window-height="974"
     inkscape:window-x="-11"
     inkscape:window-y="-11"
     inkscape:window-maximized="1"
     inkscape:current-layer="layer2">
    <inkscape:grid
       type="xygrid"
       id="grid828"
       units="mm"
       spacingx="1"
       spacingy="1"
       empspacing="10"
       color="#0000ff"
       opacity="0.1254902" />
  </sodipodi:namedview>
  <defs
     id="defs2" />
  <g
     inkscape:label="Schnitt"
     inkscape:groupmode="layer"
     id="layer1"
     sodipodi:insensitive="true">
    <path
       style="fill:none;stroke:#000000;stroke-width:0.264583px;stroke-linecap:butt;stroke-linejoin:miter;stroke-opacity:1"
       d="m 21,20 v 10 h -2.999999 v 35 h 3 L 21,74.999999 38,75 v 3 h 30 v -3 l 17,-10e-7 V 65 h 3 V 30 H 85 V 20 H 67.999998 V 17 H 38 v 3 z"
       id="path1700"
       sodipodi:nodetypes="ccccccccccccccccccccc" />
    <path
       style="fill:none;stroke:#000000;stroke-width:0.264583px;stroke-linecap:butt;stroke-linejoin:miter;stroke-opacity:1"
       d="m 143,75 h 20 v 3 h 30 v -3 h 20"
       id="path1700-0"
       sodipodi:nodetypes="cccccc" />
    <path
       style="fill:none;stroke:#000000;stroke-width:0.268233px;stroke-linecap:butt;stroke-linejoin:miter;stroke-opacity:1"
       d="M 71.5,60 V 35 h -37 v 25 z"
       id="path1735" />
    <path
       style="fill:none;stroke:#000000;stroke-width:0.264583px;stroke-linecap:butt;stroke-linejoin:miter;stroke-opacity:1"
       d="m 23,75 h -5 v 15 h 3 v 25 h -3 v 15 H 88 V 115 H 84.999998 V 90 H 88 V 75.000001 L 85,75"
       id="path3280"
       sodipodi:nodetypes="cccccccccccccc" />
    <path
       style="fill:none;stroke:#000000;stroke-width:0.264583px;stroke-linecap:butt;stroke-linejoin:miter;stroke-opacity:1"
       d="m 88,124 h 55 v -9 h 3 V 89.999999 h -3 V 75 h -10 v 3 H 98 V 75 H 88"
       id="path4033"
       sodipodi:nodetypes="cccccccccccc" />
    <path
       style="fill:none;stroke:#000000;stroke-width:0.264583px;stroke-linecap:butt;stroke-linejoin:miter;stroke-opacity:1"
       d="m 143,124 v 6 h 70 v -15 h -3 V 90 h 3 V 75.000001"
       id="path3280-9"
       sodipodi:nodetypes="cccccccc" />
    <path
       style="fill:none;stroke:#000000;stroke-width:0.264583px;stroke-linecap:butt;stroke-linejoin:miter;stroke-opacity:1"
       d="m 213,124 h 55 v -9 h 3 V 89.999999 h -3 V 75 h -10 v 3 h -35 v -3 h -10"
       id="path4033-7"
       sodipodi:nodetypes="cccccccccccc" />
  </g>
  <g
     inkscape:groupmode="layer"
     id="layer3"
     inkscape:label="Schrift"
     style="display:inline"
     sodipodi:insensitive="true">
    <g
       id="g8487"
       transform="translate(-0.84564741,-1.6975988)"
       style="fill:#000000;fill-opacity:1;stroke:none;stroke-width:0.1;stroke-miterlimit:4;stroke-dasharray:none;stroke-opacity:1"
       inkscape:export-filename="Z:\pek\Artikel aktuell\05_ESP-Gucki\Schneidevorlagen\Schriftzug.png"
       inkscape:export-xdpi="999.84021"
       inkscape:export-ydpi="999.84021">
      <g
         aria-label="ESP32"
         id="text1700"
         style="font-size:10.0785px;line-height:1.25;fill:#000000;fill-opacity:1;stroke:none;stroke-width:0.1;stroke-miterlimit:4;stroke-dasharray:none;stroke-opacity:1">
        <path
           d="m 46.455107,93.032981 h 1.845429 v 1.062967 h -0.762778 v 2.529467 h 0.762778 v 1.043282 h -0.762778 v 2.332623 h 0.762778 v 1.05312 h -1.845429 z"
           style="font-family:'Gill Sans MT Ext Condensed Bold';-inkscape-font-specification:'Gill Sans MT Ext Condensed Bold, ';fill:#000000;fill-opacity:1;stroke:none;stroke-width:0.1;stroke-miterlimit:4;stroke-dasharray:none;stroke-opacity:1"
           id="path8316" />
        <path
           d="m 48.521987,99.888133 q 0.250978,0.108265 0.462587,0.108265 0.290348,0 0.457667,-0.187004 0.17224,-0.187003 0.17224,-0.551168 0,-0.290347 -0.06397,-0.556089 -0.123029,-0.526562 -0.452745,-1.363156 -0.329717,-0.841516 -0.487193,-1.525554 -0.08858,-0.388771 -0.08858,-0.866121 0,-1.03344 0.398612,-1.50587 0.403534,-0.47243 1.048204,-0.47243 0.30019,0 0.68896,0.123029 v 1.067888 q -0.226373,-0.108265 -0.413376,-0.108265 -0.275584,0 -0.467509,0.226372 -0.191924,0.226373 -0.191924,0.659433 0,0.285427 0.06397,0.561011 0.123028,0.516719 0.413376,1.284418 0.364164,0.959622 0.531483,1.717478 0.08366,0.38385 0.08366,0.821831 0,0.866119 -0.423218,1.333629 -0.418297,0.46259 -1.048203,0.46259 -0.275584,0 -0.684039,-0.12795 z"
           style="font-family:'Gill Sans MT Ext Condensed Bold';-inkscape-font-specification:'Gill Sans MT Ext Condensed Bold, ';fill:#000000;fill-opacity:1;stroke:none;stroke-width:0.1;stroke-miterlimit:4;stroke-dasharray:none;stroke-opacity:1"
           id="path8318" />
        <path
           d="m 51.080981,93.032981 h 0.34448 q 0.875963,0 1.338551,0.2559 0.467508,0.255899 0.767698,0.816909 0.300189,0.556089 0.300189,1.259813 0,0.595458 -0.21653,1.112178 -0.21653,0.511799 -0.639748,0.851358 -0.295269,0.241135 -0.811989,0.398612 v 3.326689 h -1.082651 z m 1.082651,1.190917 v 2.347385 q 0.541326,-0.359244 0.541326,-1.181075 0,-0.43306 -0.137792,-0.723408 -0.132871,-0.290347 -0.403534,-0.442902 z"
           style="font-family:'Gill Sans MT Ext Condensed Bold';-inkscape-font-specification:'Gill Sans MT Ext Condensed Bold, ';fill:#000000;fill-opacity:1;stroke:none;stroke-width:0.1;stroke-miterlimit:4;stroke-dasharray:none;stroke-opacity:1"
           id="path8320" />
        <path
           d="m 54.117326,93.096956 q 0.250978,-0.12795 0.531483,-0.12795 0.570853,0 1.013756,0.541326 0.447824,0.541326 0.447824,1.574766 0,1.309023 -0.748014,1.845428 0.374007,0.290347 0.56101,0.664354 0.246057,0.492114 0.246057,1.176153 0,0.73325 -0.26082,1.264737 -0.260821,0.52656 -0.767698,0.80706 -0.369086,0.20669 -1.023598,0.27559 v -1.122022 q 0.437982,-0.05905 0.674196,-0.359244 0.241136,-0.305111 0.241136,-0.875963 0,-0.64467 -0.250978,-0.949781 -0.246057,-0.310032 -0.664354,-0.334637 v -0.890727 q 0.270663,0.0049 0.457666,-0.12795 0.191925,-0.137792 0.310032,-0.492114 0.118108,-0.354322 0.118108,-0.77754 0,-0.654512 -0.177162,-0.895648 -0.177161,-0.246058 -0.428139,-0.246058 -0.108265,0 -0.280505,0.06397 z"
           style="font-family:'Gill Sans MT Ext Condensed Bold';-inkscape-font-specification:'Gill Sans MT Ext Condensed Bold, ';fill:#000000;fill-opacity:1;stroke:none;stroke-width:0.1;stroke-miterlimit:4;stroke-dasharray:none;stroke-opacity:1"
           id="path8322" />
        <path
           d="m 56.430263,93.392225 q 0.285426,-0.250979 0.47243,-0.334638 0.191924,-0.08858 0.413376,-0.08858 0.536404,0 0.895647,0.447824 0.364165,0.442903 0.364165,1.451737 0,0.752935 -0.152555,1.80606 -0.177162,1.230285 -0.634828,3.31685 h 0.8612 v 1.062962 h -2.219435 q 0.487193,-1.825739 0.792304,-3.779433 0.236215,-1.491106 0.236215,-2.229278 0,-0.47735 -0.147635,-0.669275 -0.147634,-0.196846 -0.364164,-0.196846 -0.280505,0 -0.51672,0.2559 z"
           style="font-family:'Gill Sans MT Ext Condensed Bold';-inkscape-font-specification:'Gill Sans MT Ext Condensed Bold, ';fill:#000000;fill-opacity:1;stroke:none;stroke-width:0.1;stroke-miterlimit:4;stroke-dasharray:none;stroke-opacity:1"
           id="path8324" />
      </g>
      <g
         aria-label="Gucki"
         transform="rotate(-13.068153)"
         id="text2760"
         style="font-size:14.8456px;fill:#000000;fill-opacity:1;stroke:none;stroke-width:0.1;stroke-miterlimit:4;stroke-dasharray:none;stroke-opacity:1">
        <path
           style="color:#000000;-inkscape-font-specification:'Script MT Bold, ';fill:#000000;fill-opacity:1;stroke:none;stroke-width:0.1;stroke-miterlimit:4;stroke-dasharray:none;stroke-opacity:1"
           d="m 18.167969,107.66211 c -0.971946,0 -1.967987,0.32272 -2.982422,0.95117 -1.016974,0.62533 -1.842649,1.46457 -2.466797,2.50977 h 0.002 c -0.625835,1.04306 -0.943359,2.15673 -0.943359,3.32812 0,1.11084 0.279599,2.05032 0.845703,2.79492 v 0.002 h 0.002 c 0.570818,0.739 1.318093,1.1289 2.1875,1.1289 0.54306,0 1.115379,-0.18432 1.716797,-0.53515 0.358695,-0.20924 0.570506,-0.48292 0.832031,-0.73438 -0.104061,0.33463 -0.207269,0.6527 -0.314453,1.03125 -0.831064,0.41182 -1.490339,0.83019 -1.931641,1.27149 -0.460425,0.46042 -0.71289,0.95658 -0.71289,1.4707 0,0.36955 0.139457,0.69562 0.40625,0.91602 h 0.002 c 0.271351,0.21939 0.633383,0.32031 1.060547,0.32031 0.882791,0 1.686741,-0.38607 2.376953,-1.1211 0.679091,-0.71874 1.105824,-1.72924 1.310547,-2.99414 0.876735,-0.46006 1.515801,-0.87756 1.863281,-1.28125 l 0.04883,-0.0566 v -0.0742 -1.41601 l -0.357422,0.45898 c -0.281141,0.36052 -0.751977,0.67998 -1.208984,1.00196 0.128475,-0.45811 0.267862,-0.97534 0.351562,-1.21094 0.0657,-0.18494 0.114491,-0.32937 0.148438,-0.4375 0.01697,-0.0541 0.03138,-0.0989 0.04102,-0.13672 0.0096,-0.0378 0.01758,-0.0582 0.01758,-0.11523 0,-0.10619 -0.07248,-0.24084 -0.175782,-0.29102 -0.103303,-0.0502 -0.201738,-0.0463 -0.30664,-0.0312 l -1.453125,0.20898 -0.04883,0.0762 c -0.846966,1.31067 -1.69782,1.91601 -2.550782,1.91601 -0.505977,0 -0.878565,-0.1908 -1.185546,-0.60742 -0.306106,-0.42054 -0.46875,-0.99672 -0.46875,-1.75 0,-0.8206 0.182732,-1.6923 0.55664,-2.61523 0.378118,-0.92639 0.862435,-1.66373 1.447266,-2.22071 0.587469,-0.55456 1.167172,-0.81445 1.759765,-0.81445 0.393448,0 0.687865,0.11391 0.925782,0.34766 l 0.002,0.002 c 0.237101,0.22878 0.351562,0.51049 0.351562,0.89258 0,0.5646 -0.163928,1.08932 -0.501953,1.59179 -0.333979,0.49868 -0.647589,0.70118 -0.943359,0.70118 -0.107199,0 -0.187902,-0.0265 -0.265625,-0.084 -0.06442,-0.0476 -0.08594,-0.0852 -0.08594,-0.18555 0,-0.11314 -0.02244,-0.228 -0.101562,-0.32031 -0.07912,-0.0923 -0.203076,-0.13476 -0.314453,-0.13476 -0.216475,0 -0.415142,0.11996 -0.556641,0.30273 l -0.002,0.002 -0.002,0.002 c -0.135674,0.18287 -0.205078,0.40118 -0.205078,0.63281 0,0.37955 0.186172,0.71922 0.513671,0.96484 h 0.002 v 0.002 c 0.333439,0.24598 0.751312,0.36523 1.228515,0.36523 0.813063,0 1.545754,-0.34029 2.160156,-0.99023 0.614746,-0.65031 0.931641,-1.42332 0.931641,-2.28321 0,-0.80002 -0.286632,-1.48115 -0.847656,-1.99023 -0.556445,-0.50964 -1.289021,-0.76172 -2.158203,-0.76172 z m 0,0.40039 c 0.793213,0 1.410951,0.21871 1.888672,0.65625 v 0.002 c 0.482805,0.43811 0.716796,0.98564 0.716796,1.69336 0,0.76386 -0.267534,1.42099 -0.822265,2.00782 -0.555074,0.58718 -1.164783,0.86523 -1.869141,0.86523 -0.411985,0 -0.734102,-0.0982 -0.990234,-0.28711 -0.252407,-0.18931 -0.353516,-0.38619 -0.353516,-0.64453 0,-0.15497 0.04033,-0.27778 0.126953,-0.39453 0.08837,-0.11244 0.156417,-0.14453 0.238282,-0.14453 0.0336,0 0.0164,0.002 0.0098,-0.006 -0.0066,-0.008 0.0078,0.005 0.0078,0.0605 0,0.19927 0.08822,0.39112 0.246093,0.50782 0.144574,0.10686 0.321153,0.16211 0.503907,0.16211 0.477436,0 0.903818,-0.3241 1.27539,-0.87891 0.377193,-0.56069 0.570313,-1.17092 0.570313,-1.81445 0,-0.46845 -0.160799,-0.87689 -0.47461,-1.17969 -0.312842,-0.30664 -0.72934,-0.46289 -1.205078,-0.46289 -0.711653,0 -1.395709,0.32158 -2.035156,0.92578 H 16 c -0.632972,0.60283 -1.143973,1.3914 -1.539062,2.35937 -0.389634,0.96176 -0.587891,1.88518 -0.587891,2.76563 0,0.81168 0.17509,1.48108 0.544922,1.98828 h 0.002 c 0.369575,0.50157 0.892639,0.76953 1.507812,0.76953 1.014804,0 1.951953,-0.71946 2.816407,-2.01953 l 1.292968,-0.18555 c 0.0016,-2.3e-4 3.62e-4,2.1e-4 0.002,0 -0.0056,0.0191 -0.008,0.0322 -0.01563,0.0566 -0.03129,0.0997 -0.07976,0.24346 -0.144531,0.42579 -0.134713,0.37919 -0.313266,0.99293 -0.541015,1.85546 l -0.123047,0.4668 0.416015,-0.24219 c 0.613329,-0.35613 1.040445,-0.77079 1.439453,-1.19531 v 0.31641 c -0.303504,0.33777 -0.88279,0.74873 -1.77539,1.20898 l -0.0918,0.0469 -0.01563,0.10156 c -0.189104,1.25754 -0.603664,2.20769 -1.230469,2.87109 v 0.002 c -0.633646,0.67527 -1.316491,0.99414 -2.085937,0.99414 -0.36456,0 -0.625745,-0.0832 -0.808594,-0.23047 h -0.002 c -0.176379,-0.14659 -0.257813,-0.32854 -0.257813,-0.60547 0,-0.38473 0.183855,-0.77565 0.595704,-1.1875 0.411848,-0.41185 1.048442,-0.83322 1.908203,-1.25 l 0.08008,-0.0391 0.02539,-0.0859 c 0.182943,-0.64993 0.360462,-1.23373 0.533203,-1.75195 l -0.355468,-0.17774 c -0.284284,0.41063 -0.701237,0.78047 -1.261719,1.10742 -0.558393,0.32573 -1.06318,0.48047 -1.515625,0.48047 -0.754328,0 -1.359421,-0.31022 -1.871094,-0.97265 -0.506721,-0.6665 -0.763672,-1.50826 -0.763672,-2.55274 0,-1.0999 0.292798,-2.13643 0.884766,-3.12304 0.593406,-0.99372 1.368216,-1.78261 2.332031,-2.375 h 0.002 c 0.96691,-0.59902 1.887733,-0.89063 2.771485,-0.89063 z m -0.832032,10.56836 -0.373046,0.18555 c -0.63979,0.31989 -1.12735,0.64035 -1.464844,0.97265 -0.337494,0.3323 -0.53125,0.68927 -0.53125,1.0625 0,0.19373 0.04855,0.37285 0.171875,0.50196 0.123321,0.1291 0.30265,0.18359 0.492187,0.18359 0.3899,0 0.725907,-0.25891 0.982422,-0.68164 0.256516,-0.42273 0.462996,-1.02381 0.634766,-1.81641 z m -0.662109,0.85352 c -0.127884,0.44085 -0.253292,0.91843 -0.402344,1.16406 -0.217074,0.35773 -0.421624,0.48828 -0.640625,0.48828 -0.119745,0 -0.171804,-0.0258 -0.203125,-0.0586 -0.03132,-0.0328 -0.06055,-0.0965 -0.06055,-0.22657 0,-0.23566 0.121372,-0.49108 0.412109,-0.77734 0.190993,-0.18806 0.562428,-0.39024 0.894531,-0.58984 z"
           id="path8345" />
        <path
           style="color:#000000;-inkscape-font-specification:'Script MT Bold, ';fill:#000000;fill-opacity:1;stroke:none;stroke-width:0.1;stroke-miterlimit:4;stroke-dasharray:none;stroke-opacity:1"
           d="m 28.296875,111.76758 -2.419922,0.48828 -0.984375,3.20312 c -0.07743,0.25676 -0.291248,0.59749 -0.652344,0.9961 -0.356952,0.3894 -0.643509,0.54297 -0.787109,0.54297 -0.129527,0 -0.183836,-0.029 -0.232422,-0.0937 -0.04859,-0.0648 -0.08984,-0.19538 -0.08984,-0.40235 0,-0.57683 0.387076,-2.08327 1.177735,-4.39257 l 0.113281,-0.33008 -2.378906,0.47461 -0.03906,0.10547 c -0.680706,1.8379 -1.027344,3.26636 -1.027344,4.3164 10e-7,0.55032 0.1167,1.00902 0.371094,1.35742 0.253231,0.34682 0.624338,0.53907 1.046875,0.53907 0.446885,0 0.896978,-0.15389 1.341797,-0.44532 l 0.002,-0.002 c 0.364295,-0.24287 0.779774,-0.65002 1.208985,-1.0957 0.04302,0.36109 0.07704,0.72885 0.246093,0.98242 v 0.002 c 0.239949,0.35156 0.615845,0.54492 1.050782,0.54492 0.398509,0 0.81902,-0.16228 1.269531,-0.46093 v -0.002 h 0.002 c 0.445474,-0.30032 0.984363,-0.75281 1.626953,-1.36132 l 0.0625,-0.0586 v -0.0859 -1.29687 l -0.945312,0.89062 v -0.002 c -0.480517,0.44754 -0.850972,0.63477 -0.980469,0.63477 -0.105683,0 -0.139228,-0.0197 -0.181641,-0.082 -0.04241,-0.0623 -0.08203,-0.19401 -0.08203,-0.39844 0,-0.18918 0.07891,-0.60281 0.246094,-1.18555 0.168074,-0.58586 0.47952,-1.60654 0.933593,-3.06055 z m -0.580078,0.52539 c -0.379999,1.22129 -0.687493,2.21699 -0.839844,2.74805 -0.171096,0.59638 -0.259766,1.0105 -0.259766,1.29492 0,0.24982 0.03816,0.45821 0.150391,0.62304 0.112229,0.16484 0.308119,0.25782 0.511719,0.25782 0.373087,0 0.748582,-0.27155 1.253906,-0.74219 l 0.271484,-0.25586 v 0.27734 c -0.599996,0.56367 -1.115446,0.99912 -1.513671,1.26758 -0.408826,0.27066 -0.759633,0.39453 -1.046875,0.39453 -0.328607,0 -0.543101,-0.11179 -0.71875,-0.36914 -0.173173,-0.26049 -0.271485,-0.63177 -0.271485,-1.12695 v -0.51758 l -0.347656,0.38281 c -0.524626,0.57709 -0.991233,0.99936 -1.390625,1.26563 -0.395349,0.25864 -0.76633,0.3789 -1.121094,0.37891 -0.31201,-1e-5 -0.531292,-0.11096 -0.722656,-0.37305 -0.1902,-0.26049 -0.294922,-0.62952 -0.294922,-1.12305 0,-0.93689 0.336814,-2.32456 0.976563,-4.07617 l 1.490234,-0.29688 c -0.686152,2.04217 -1.113281,3.5142 -1.113281,4.19922 0,0.25697 0.04649,0.4754 0.171875,0.64258 0.125386,0.16718 0.332365,0.25391 0.550781,0.25391 0.358984,0 0.694771,-0.25137 1.082031,-0.67383 l 0.002,-0.002 c 0.382657,-0.42242 0.631861,-0.7947 0.738282,-1.14649 v -0.002 l 0.914062,-2.97266 z"
           id="path8347" />
        <path
           style="color:#000000;-inkscape-font-specification:'Script MT Bold, ';fill:#000000;fill-opacity:1;stroke:none;stroke-width:0.1;stroke-miterlimit:4;stroke-dasharray:none;stroke-opacity:1"
           d="m 32.505859,111.83008 c -0.941357,0 -1.814899,0.47719 -2.59375,1.38086 -0.774498,0.89942 -1.171875,1.90262 -1.171875,2.98047 0,0.67131 0.224249,1.25219 0.666016,1.69922 h 0.002 c 0.447025,0.44176 1.027911,0.66796 1.699219,0.66796 0.593848,0 1.166244,-0.15356 1.705078,-0.45312 0.54027,-0.29791 1.120748,-0.75555 1.748047,-1.37305 l 0.06055,-0.0586 v -0.084 -1.33593 l -0.345703,0.36328 c -0.432855,0.45664 -0.818439,0.79367 -1.146485,1.00781 -0.313459,0.20268 -0.639248,0.30078 -0.992187,0.30078 -0.409267,0 -0.703815,-0.13864 -0.945313,-0.43945 -0.241306,-0.30057 -0.36914,-0.70882 -0.36914,-1.25195 0,-0.63791 0.137765,-1.1972 0.410156,-1.6875 0.277187,-0.48929 0.541443,-0.67969 0.794922,-0.67969 0.09174,0 0.131861,0.021 0.189453,0.10742 l 0.002,0.002 0.002,0.002 c 0.06239,0.0887 0.09961,0.21654 0.09961,0.40039 0,0.008 -0.01228,0.15555 -0.04102,0.37109 -0.02921,0.21423 -0.04492,0.31564 -0.04492,0.4043 0,0.0717 0.0077,0.14717 0.06055,0.22265 0.05284,0.0755 0.158786,0.1211 0.240234,0.1211 0.115003,0 0.197937,-0.0382 0.310547,-0.0918 l 0.841797,-0.39844 c 0.153645,-0.0742 0.272451,-0.14967 0.355469,-0.26367 0.09106,-0.118 0.121093,-0.26389 0.121093,-0.42383 0,-0.42903 -0.163899,-0.80625 -0.474609,-1.07812 -0.309716,-0.27588 -0.716731,-0.41211 -1.183594,-0.41211 z m 0,0.40039 c 0.392643,0 0.68661,0.10397 0.917969,0.31055 l 0.002,0.002 c 0.230535,0.20172 0.337891,0.44283 0.337891,0.77734 0,0.10912 -0.02396,0.16491 -0.03711,0.18164 l -0.002,0.002 -0.0039,0.004 c -0.0135,0.0189 -0.08229,0.0785 -0.207031,0.13867 l -0.839844,0.39844 c -0.01803,0.009 -0.01169,0.006 -0.02734,0.0117 0.0054,-0.0512 0.0086,-0.0999 0.0293,-0.25195 v -0.002 c 0.02925,-0.21939 0.04492,-0.3355 0.04492,-0.42382 0,-0.23984 -0.05231,-0.45522 -0.171875,-0.62696 -3.35e-4,-5e-4 -0.0016,5.1e-4 -0.002,0 -0.116509,-0.17369 -0.312257,-0.28515 -0.519531,-0.28515 -0.451406,0 -0.832945,0.3331 -1.144532,0.88476 v 0.002 c -0.307515,0.55353 -0.460937,1.18498 -0.460937,1.88086 0,0.607 0.147426,1.11631 0.457031,1.50195 0.309412,0.38541 0.748896,0.58984 1.257813,0.58984 0.429297,0 0.838698,-0.12406 1.210937,-0.36523 v -0.002 c 0.263466,-0.17198 0.570418,-0.47328 0.873047,-0.76367 v 0.29883 c -0.584472,0.56771 -1.123259,0.99906 -1.599609,1.26172 h -0.002 c -0.485161,0.27004 -0.985052,0.40234 -1.511719,0.40234 -0.584182,0 -1.041853,-0.17997 -1.416016,-0.54882 l -0.002,-0.002 c -0.36886,-0.37416 -0.548828,-0.83183 -0.548828,-1.41601 0,-0.98082 0.350627,-1.87845 1.074219,-2.71875 0.728904,-0.84572 1.482991,-1.24219 2.291015,-1.24219 z"
           id="path8349" />
        <path
           style="color:#000000;-inkscape-font-specification:'Script MT Bold, ';fill:#000000;fill-opacity:1;stroke:none;stroke-width:0.1;stroke-miterlimit:4;stroke-dasharray:none;stroke-opacity:1"
           d="m 39.486328,107.67578 c -0.06033,0 -0.08361,0.0104 -0.130859,0.0215 -0.04725,0.0111 -0.103964,0.0264 -0.175782,0.0469 -0.143635,0.0409 -0.3414,0.10157 -0.59375,0.18164 -0.509993,0.15701 -1.11076,0.3748 -1.804687,0.65625 l -0.05859,0.0254 -0.03516,0.0527 c -0.897456,1.40471 -1.545632,2.77669 -1.943359,4.11718 -0.39712,1.33844 -0.595703,2.74318 -0.595704,4.21094 0,0.53946 0.03018,0.99778 0.0957,1.38086 l 0.03516,0.19727 2.013672,-0.33789 -0.0059,-0.17383 c -0.01438,-0.4351 -0.01111,-0.82355 0.0078,-1.16406 0.01897,-0.36525 0.05602,-0.76662 0.113281,-1.20118 v -0.002 c 0.05753,-0.42166 0.111487,-0.75039 0.158203,-0.98047 0.0234,-0.11526 0.04556,-0.20682 0.06445,-0.26953 0.01889,-0.0627 0.04348,-0.10064 0.0293,-0.082 h -0.002 c 0.14756,-0.19041 0.282789,-0.35276 0.404297,-0.48828 0.123847,-0.13761 0.239006,-0.25375 0.345703,-0.34766 l 0.0059,-0.004 c 6e-4,-5.3e-4 0.0014,-10e-4 0.002,-0.002 0.109529,-0.087 0.214084,-0.15811 0.310546,-0.21289 l 0.0039,-0.002 c 0.09057,-0.049 0.185105,-0.0868 0.283203,-0.11133 h 0.002 c 0.09402,-0.0245 0.192064,-0.0371 0.296875,-0.0371 0.183167,0 0.306658,0.048 0.408203,0.14258 l 0.002,0.002 0.0039,0.002 c 0.105658,0.0916 0.148438,0.18463 0.148438,0.33398 0,0.21822 -0.08973,0.39567 -0.316406,0.57617 -0.210954,0.16352 -0.564136,0.26943 -1.070313,0.2832 h 0.0059 c -0.216637,0 -0.397842,0.0261 -0.535157,0.1543 -0.131369,0.12198 -0.166015,0.29653 -0.166015,0.48828 0,0.13868 0.06063,0.28534 0.171875,0.37305 0.111246,0.0877 0.247847,0.11725 0.398437,0.12305 h 0.002 0.002 c 0.09618,0.002 0.13768,0.0238 0.152344,0.0371 0.01466,0.0132 0.02734,0.03 0.02734,0.10351 0,-0.0227 -0.0054,0.0533 -0.01953,0.14649 -0.01416,0.0932 -0.03558,0.22414 -0.06445,0.39257 -0.05893,0.34375 -0.08984,0.60293 -0.08984,0.79493 0,0.40175 0.141831,0.76361 0.412109,1.04492 v 0.002 c 0.27107,0.2766 0.627245,0.42188 1.021485,0.42188 0.835104,0 1.767104,-0.64863 2.878906,-1.86329 l 0.05273,-0.0566 v -0.0781 -1.38477 l -0.353515,0.42383 c -0.440389,0.52655 -0.783423,0.88022 -1.003907,1.04883 -0.226418,0.17314 -0.410759,0.24219 -0.539062,0.24219 -0.102055,0 -0.138657,-0.0218 -0.16211,-0.0469 -0.02323,-0.0249 -0.0503,-0.0794 -0.05078,-0.19336 -4e-6,-0.001 0,-8.6e-4 0,-0.002 l 0.04297,-0.64648 v -0.006 c 0,-0.30125 -0.08408,-0.57163 -0.259766,-0.77735 -0.08368,-0.098 -0.236104,-0.12895 -0.353515,-0.19531 0.51265,-0.16937 1.011775,-0.33966 1.318359,-0.58984 0.395659,-0.32288 0.615234,-0.73808 0.615234,-1.19922 0,-0.40573 -0.178769,-0.76695 -0.501953,-1.02539 -4.68e-4,-3.9e-4 -0.0015,3.8e-4 -0.002,0 -0.324828,-0.26366 -0.743424,-0.39258 -1.226562,-0.39258 -0.159491,0 -0.379848,0.0657 -0.572266,0.10156 0.419078,-0.53182 0.822441,-1.05304 1.052734,-1.46289 v -0.002 c 0.29669,-0.53303 0.453125,-1.03547 0.453125,-1.50977 0,-0.28506 -0.06395,-0.56053 -0.1875,-0.81836 -0.06143,-0.1282 -0.124483,-0.23214 -0.205078,-0.31445 -0.08059,-0.0823 -0.191749,-0.14844 -0.316406,-0.14844 z m 0,0.40039 c -0.0087,0 -0.0037,-0.006 0.0293,0.0273 0.03297,0.0337 0.0831,0.10327 0.132812,0.20703 0.09875,0.20609 0.146485,0.41929 0.146485,0.64648 0,0.38591 -0.128792,0.82495 -0.402344,1.31641 -0.275631,0.49029 -0.712625,1.09677 -1.306641,1.81054 l -0.419921,0.50391 0.630859,-0.18555 c 0.399361,-0.11745 0.723983,-0.17187 0.964844,-0.17187 0.415017,0 0.731347,0.10323 0.976562,0.30273 l 0.002,0.002 c 0.24565,0.19568 0.351563,0.41399 0.351563,0.71289 0,0.34106 -0.141943,0.62198 -0.46875,0.88867 -0.326807,0.26669 -0.843128,0.50145 -1.548828,0.68555 l 0.0059,0.38867 c 0.253712,0.0586 0.422279,0.15594 0.529297,0.28125 0.106651,0.12488 0.163672,0.28655 0.164062,0.51562 2e-6,7.9e-4 0,10e-4 0,0.002 l -0.04492,0.64453 v 0.008 c 0,0.17854 0.04393,0.34645 0.158203,0.46875 0.114275,0.12229 0.281678,0.17383 0.455078,0.17383 0.258301,0 0.514747,-0.12043 0.78125,-0.32422 0.182357,-0.13945 0.457423,-0.45962 0.714844,-0.74414 v 0.25 c -1.055916,1.13885 -1.927615,1.68555 -2.53125,1.68555 -0.301648,0 -0.531856,-0.0941 -0.734375,-0.30079 -0.203313,-0.21161 -0.298829,-0.4541 -0.298829,-0.76757 0,-0.14629 0.02693,-0.39377 0.08398,-0.72657 0.02912,-0.16984 0.05157,-0.30271 0.06641,-0.40039 0.01484,-0.0977 0.02344,-0.14084 0.02344,-0.20703 0,-0.14883 -0.04917,-0.30008 -0.160157,-0.40039 -0.110982,-0.10031 -0.256992,-0.13569 -0.412109,-0.13867 -0.09636,-0.005 -0.14998,-0.028 -0.164063,-0.0391 -0.0144,-0.0114 -0.01758,-0.009 -0.01758,-0.0586 0,-0.13685 0.03317,-0.19165 0.03711,-0.19531 h 0.002 c 0.0077,-0.007 0.09175,-0.0469 0.261719,-0.0469 h 0.002 0.0039 c 0.55612,-0.0151 0.993599,-0.12716 1.304687,-0.36915 h 0.002 v -0.002 c 0.295236,-0.2351 0.466797,-0.54631 0.466796,-0.88867 0,-0.24446 -0.10041,-0.47134 -0.28125,-0.63086 -4.52e-4,-4.2e-4 -0.0015,4.2e-4 -0.002,0 -0.178598,-0.16557 -0.416967,-0.25 -0.677734,-0.25 -0.136816,0 -0.270161,0.0173 -0.398438,0.0508 -0.131827,0.0331 -0.258593,0.0828 -0.378906,0.14844 l -0.002,0.002 c -0.122395,0.0692 -0.24732,0.15369 -0.375,0.25586 l -0.0039,0.004 -0.002,0.002 c -0.123532,0.10809 -0.252051,0.23708 -0.386719,0.38672 -0.129785,0.14475 -0.27177,0.31551 -0.423828,0.51172 -0.05284,0.0694 -0.06915,0.12927 -0.09375,0.21094 -0.0246,0.0817 -0.0493,0.18194 -0.07422,0.30468 -0.04984,0.24548 -0.103789,0.58013 -0.162109,1.00782 -0.05857,0.44415 -0.09754,0.85599 -0.117188,1.23437 -0.01682,0.30271 -0.01406,0.65427 -0.0059,1.02149 l -1.26372,0.21062 c -0.04339,-0.3204 -0.07617,-0.66973 -0.07617,-1.11328 0,-1.43176 0.192371,-2.79752 0.578125,-4.09765 0.38007,-1.28098 1.010215,-2.60327 1.873047,-3.9629 0.653652,-0.26329 1.229441,-0.47474 1.705078,-0.62109 h 0.002 c 0.250236,-0.0794 0.445379,-0.13886 0.582031,-0.17773 0.06833,-0.0194 0.120887,-0.0342 0.158204,-0.043 0.03732,-0.009 0.0704,-0.01 0.03906,-0.01 z m -0.492187,0.45508 c -0.228304,0 -0.433969,0.12719 -0.626954,0.32422 -0.192984,0.19703 -0.383015,0.47565 -0.583984,0.83789 -0.401246,0.73227 -0.794952,1.83948 -1.193359,3.33594 l 0.341797,0.18554 0.478515,-0.52929 0.002,-0.002 c 0.712464,-0.80243 1.248037,-1.48789 1.611328,-2.06445 0.363292,-0.57656 0.5625,-1.03895 0.5625,-1.4375 0,-0.17884 -0.03787,-0.34405 -0.146484,-0.46875 -0.108611,-0.1247 -0.276563,-0.18164 -0.445312,-0.18164 z m 0,0.40039 c 0.09221,0 0.12071,0.0179 0.142578,0.043 0.02187,0.0251 0.04883,0.0863 0.04883,0.20703 0,0.25386 -0.155324,0.6776 -0.5,1.22461 -0.296836,0.47109 -0.792308,1.08062 -1.355469,1.73438 0.271104,-0.85998 0.544469,-1.78258 0.802734,-2.25391 0.190468,-0.34331 0.368942,-0.59426 0.521485,-0.75 0.152543,-0.15574 0.268529,-0.20508 0.339844,-0.20508 z"
           id="path8351" />
        <path
           style="color:#000000;-inkscape-font-specification:'Script MT Bold, ';fill:#000000;fill-opacity:1;stroke:none;stroke-width:0.1;stroke-miterlimit:4;stroke-dasharray:none;stroke-opacity:1"
           d="m 45.152344,108.81445 -0.31836,0.23438 c -0.230008,0.16925 -0.443439,0.24414 -0.65625,0.24414 -0.163907,0 -0.450054,-0.0989 -0.816406,-0.32617 l -0.222656,-0.13867 -0.07422,0.2539 c -0.149584,0.5142 -0.358436,0.97345 -0.626953,1.38086 l -0.09766,0.14649 0.134765,0.11523 c 0.330099,0.2814 0.739404,0.42578 1.195313,0.42578 0.472878,0 0.871403,-0.17637 1.123047,-0.51758 0.251643,-0.34121 0.359375,-0.81738 0.359375,-1.42187 z m -1.791016,0.57227 c 0.294549,0.15956 0.578055,0.30664 0.816406,0.30664 0.173539,0 0.334908,-0.11339 0.501953,-0.18164 -0.03834,0.35296 -0.07764,0.70667 -0.208984,0.88476 -0.176037,0.2387 -0.418298,0.35352 -0.800781,0.35352 -0.321313,0 -0.567805,-0.12162 -0.800781,-0.2832 0.197775,-0.33266 0.363984,-0.69181 0.492187,-1.08008 z m 0.962891,2.45703 -1.96875,0.41211 -0.03906,0.10156 c -0.700366,1.8336 -1.05664,3.27326 -1.05664,4.34766 0,0.50805 0.113329,0.94929 0.351562,1.30664 v 0.002 c 0.237865,0.3514 0.572226,0.5586 0.949219,0.5586 0.350977,0 0.730066,-0.17327 1.169922,-0.48243 0.439856,-0.30915 0.940623,-0.7629 1.511718,-1.36328 l 0.05469,-0.0566 v -0.0801 -1.35742 l -0.347656,0.39063 c -0.407115,0.45501 -0.711216,0.75039 -0.875,0.86914 -0.162813,0.11688 -0.306657,0.16601 -0.447266,0.16601 -0.0432,0 -0.06419,-0.012 -0.103516,-0.0625 -0.03939,-0.0611 -0.06641,-0.14699 -0.06641,-0.27539 0,-0.3513 0.142353,-1.01567 0.439453,-1.94531 l 0.808594,-2.53125 z m -0.181641,0.44727 -0.626953,1.96093 c -0.302135,0.9454 -0.458984,1.61746 -0.458984,2.06836 0,0.18776 0.04029,0.36219 0.134765,0.50391 l 0.0039,0.004 0.002,0.004 c 0.100649,0.13419 0.262768,0.22461 0.429687,0.22461 0.236331,0 0.467515,-0.0865 0.681641,-0.24023 0.140224,-0.10167 0.379053,-0.3657 0.589843,-0.58399 V 116.5 c -0.533505,0.55554 -1.007792,0.9891 -1.398437,1.26367 -0.405839,0.28525 -0.729855,0.40821 -0.939453,0.40821 -0.241575,0 -0.429789,-0.10597 -0.617188,-0.38282 -0.186417,-0.28032 -0.285156,-0.63595 -0.285156,-1.08398 0,-0.961 0.348991,-2.35654 1.007813,-4.10547 z"
           id="path8353" />
      </g>
    </g>
  </g>
  <g
     inkscape:groupmode="layer"
     id="layer2"
     inkscape:label="Hilfslinien"
     style="display:inline"
     sodipodi:insensitive="true">
    <path
       style="fill:none;stroke:#ffcc00;stroke-width:0.264583px;stroke-linecap:butt;stroke-linejoin:miter;stroke-opacity:1"
       d="M 10,10 H 280 V 140 H 10 V 10"
       id="path1093"
       sodipodi:nodetypes="ccccc" />
    <path
       id="rect1018"
       style="fill:#ffcc00;fill-opacity:0.440233;stroke-width:0.3"
       d="M 80.470829,20 V 35 H 25.470833 V 20 Z" />
    <path
       id="rect1018-5"
       style="fill:#ffcc00;fill-opacity:0.440233;stroke-width:0.3"
       d="M 80.529162,60 V 75 H 25.529167 V 60 Z" />
    <path
       style="fill:none;fill-opacity:1;stroke:#00c800;stroke-width:0.264583px;stroke-linecap:butt;stroke-linejoin:miter;stroke-opacity:1"
       d="m 38,76.529165 c 5.999999,0 29.999998,0 29.999998,0"
       id="path1044" />
    <path
       style="display:inline;fill:none;fill-opacity:1;stroke:#00c800;stroke-width:0.264583px;stroke-linecap:butt;stroke-linejoin:miter;stroke-opacity:1"
       d="m 98,76.470833 h 35"
       id="path1044-8"
       sodipodi:nodetypes="cc" />
    <path
       style="display:inline;fill:none;fill-opacity:1;stroke:#00c800;stroke-width:0.264583px;stroke-linecap:butt;stroke-linejoin:miter;stroke-opacity:1"
       d="m 223,76.529167 h 35"
       id="path1044-8-7"
       sodipodi:nodetypes="cc" />
    <path
       style="display:inline;fill:none;fill-opacity:1;stroke:#00c800;stroke-width:0.264583px;stroke-linecap:butt;stroke-linejoin:miter;stroke-opacity:1"
       d="m 163,76.470833 c 6,0 30,0 30,0"
       id="path1044-1" />
  </g>
</svg>
